<mxfile host="Electron" modified="2023-06-16T14:12:23.853Z" agent="Mozilla/5.0 (Windows NT 10.0; Win64; x64) AppleWebKit/537.36 (KHTML, like Gecko) draw.io/21.3.7 Chrome/112.0.5615.204 Electron/24.5.0 Safari/537.36" etag="XlUthHCkp-1a7hYVoJDN" version="21.3.7" type="device">
  <diagram name="Page-1" id="c4acf3e9-155e-7222-9cf6-157b1a14988f">
    <mxGraphModel dx="1835" dy="1095" grid="1" gridSize="10" guides="1" tooltips="1" connect="1" arrows="1" fold="1" page="1" pageScale="1" pageWidth="850" pageHeight="1100" background="none" math="0" shadow="0">
      <root>
        <mxCell id="0" />
        <mxCell id="1" parent="0" />
        <mxCell id="1szJqMXlDg2l1sWaEA4Y-1" value="User" style="swimlane;html=1;fontStyle=0;childLayout=stackLayout;horizontal=1;startSize=26;fillColor=none;horizontalStack=0;resizeParent=1;resizeLast=0;collapsible=1;marginBottom=0;swimlaneFillColor=#ffffff;rounded=0;shadow=0;comic=0;labelBackgroundColor=none;strokeWidth=1;fontFamily=Verdana;fontSize=10;align=center;" parent="1" vertex="1">
          <mxGeometry x="990" y="235" width="160" height="186" as="geometry" />
        </mxCell>
        <mxCell id="1szJqMXlDg2l1sWaEA4Y-13" value="+ id: int" style="text;html=1;strokeColor=none;fillColor=none;align=left;verticalAlign=top;spacingLeft=4;spacingRight=4;whiteSpace=wrap;overflow=hidden;rotatable=0;points=[[0,0.5],[1,0.5]];portConstraint=eastwest;" parent="1szJqMXlDg2l1sWaEA4Y-1" vertex="1">
          <mxGeometry y="26" width="160" height="26" as="geometry" />
        </mxCell>
        <mxCell id="1szJqMXlDg2l1sWaEA4Y-2" value="+ username: String" style="text;html=1;strokeColor=none;fillColor=none;align=left;verticalAlign=top;spacingLeft=4;spacingRight=4;whiteSpace=wrap;overflow=hidden;rotatable=0;points=[[0,0.5],[1,0.5]];portConstraint=eastwest;" parent="1szJqMXlDg2l1sWaEA4Y-1" vertex="1">
          <mxGeometry y="52" width="160" height="26" as="geometry" />
        </mxCell>
        <mxCell id="1szJqMXlDg2l1sWaEA4Y-3" value="+ password: String" style="text;html=1;strokeColor=none;fillColor=none;align=left;verticalAlign=top;spacingLeft=4;spacingRight=4;whiteSpace=wrap;overflow=hidden;rotatable=0;points=[[0,0.5],[1,0.5]];portConstraint=eastwest;" parent="1szJqMXlDg2l1sWaEA4Y-1" vertex="1">
          <mxGeometry y="78" width="160" height="26" as="geometry" />
        </mxCell>
        <mxCell id="1szJqMXlDg2l1sWaEA4Y-4" value="+ firstName: String" style="text;html=1;strokeColor=none;fillColor=none;align=left;verticalAlign=top;spacingLeft=4;spacingRight=4;whiteSpace=wrap;overflow=hidden;rotatable=0;points=[[0,0.5],[1,0.5]];portConstraint=eastwest;" parent="1szJqMXlDg2l1sWaEA4Y-1" vertex="1">
          <mxGeometry y="104" width="160" height="26" as="geometry" />
        </mxCell>
        <mxCell id="1szJqMXlDg2l1sWaEA4Y-5" value="+ lastName: String" style="text;html=1;strokeColor=none;fillColor=none;align=left;verticalAlign=top;spacingLeft=4;spacingRight=4;whiteSpace=wrap;overflow=hidden;rotatable=0;points=[[0,0.5],[1,0.5]];portConstraint=eastwest;" parent="1szJqMXlDg2l1sWaEA4Y-1" vertex="1">
          <mxGeometry y="130" width="160" height="26" as="geometry" />
        </mxCell>
        <mxCell id="1szJqMXlDg2l1sWaEA4Y-8" value="Account" style="swimlane;html=1;fontStyle=0;childLayout=stackLayout;horizontal=1;startSize=26;fillColor=none;horizontalStack=0;resizeParent=1;resizeLast=0;collapsible=1;marginBottom=0;swimlaneFillColor=#ffffff;rounded=0;shadow=0;comic=0;labelBackgroundColor=none;strokeWidth=1;fontFamily=Verdana;fontSize=10;align=center;" parent="1" vertex="1">
          <mxGeometry x="1250" y="235" width="160" height="186" as="geometry" />
        </mxCell>
        <mxCell id="1szJqMXlDg2l1sWaEA4Y-10" value="+ id: int" style="text;html=1;strokeColor=none;fillColor=none;align=left;verticalAlign=top;spacingLeft=4;spacingRight=4;whiteSpace=wrap;overflow=hidden;rotatable=0;points=[[0,0.5],[1,0.5]];portConstraint=eastwest;" parent="1szJqMXlDg2l1sWaEA4Y-8" vertex="1">
          <mxGeometry y="26" width="160" height="26" as="geometry" />
        </mxCell>
        <mxCell id="1szJqMXlDg2l1sWaEA4Y-9" value="+ currency: String" style="text;html=1;strokeColor=none;fillColor=none;align=left;verticalAlign=top;spacingLeft=4;spacingRight=4;whiteSpace=wrap;overflow=hidden;rotatable=0;points=[[0,0.5],[1,0.5]];portConstraint=eastwest;" parent="1szJqMXlDg2l1sWaEA4Y-8" vertex="1">
          <mxGeometry y="52" width="160" height="26" as="geometry" />
        </mxCell>
        <mxCell id="1szJqMXlDg2l1sWaEA4Y-11" value="+ balance: double" style="text;html=1;strokeColor=none;fillColor=none;align=left;verticalAlign=top;spacingLeft=4;spacingRight=4;whiteSpace=wrap;overflow=hidden;rotatable=0;points=[[0,0.5],[1,0.5]];portConstraint=eastwest;" parent="1szJqMXlDg2l1sWaEA4Y-8" vertex="1">
          <mxGeometry y="78" width="160" height="26" as="geometry" />
        </mxCell>
        <mxCell id="x9i4-6A59VeeFug72pad-25" value="+ userId: int" style="text;html=1;strokeColor=none;fillColor=none;align=left;verticalAlign=top;spacingLeft=4;spacingRight=4;whiteSpace=wrap;overflow=hidden;rotatable=0;points=[[0,0.5],[1,0.5]];portConstraint=eastwest;" parent="1szJqMXlDg2l1sWaEA4Y-8" vertex="1">
          <mxGeometry y="104" width="160" height="26" as="geometry" />
        </mxCell>
        <mxCell id="1szJqMXlDg2l1sWaEA4Y-14" value="Transaction" style="swimlane;html=1;fontStyle=0;childLayout=stackLayout;horizontal=1;startSize=26;fillColor=none;horizontalStack=0;resizeParent=1;resizeLast=0;collapsible=1;marginBottom=0;swimlaneFillColor=#ffffff;rounded=0;shadow=0;comic=0;labelBackgroundColor=none;strokeWidth=1;fontFamily=Verdana;fontSize=10;align=center;" parent="1" vertex="1">
          <mxGeometry x="1470" y="235" width="220" height="208" as="geometry" />
        </mxCell>
        <mxCell id="1szJqMXlDg2l1sWaEA4Y-15" value="+ id: int" style="text;html=1;strokeColor=none;fillColor=none;align=left;verticalAlign=top;spacingLeft=4;spacingRight=4;whiteSpace=wrap;overflow=hidden;rotatable=0;points=[[0,0.5],[1,0.5]];portConstraint=eastwest;" parent="1szJqMXlDg2l1sWaEA4Y-14" vertex="1">
          <mxGeometry y="26" width="220" height="26" as="geometry" />
        </mxCell>
        <mxCell id="1szJqMXlDg2l1sWaEA4Y-16" value="+ amount: double" style="text;html=1;strokeColor=none;fillColor=none;align=left;verticalAlign=top;spacingLeft=4;spacingRight=4;whiteSpace=wrap;overflow=hidden;rotatable=0;points=[[0,0.5],[1,0.5]];portConstraint=eastwest;" parent="1szJqMXlDg2l1sWaEA4Y-14" vertex="1">
          <mxGeometry y="52" width="220" height="26" as="geometry" />
        </mxCell>
        <mxCell id="1szJqMXlDg2l1sWaEA4Y-17" value="+ type : String" style="text;html=1;strokeColor=none;fillColor=none;align=left;verticalAlign=top;spacingLeft=4;spacingRight=4;whiteSpace=wrap;overflow=hidden;rotatable=0;points=[[0,0.5],[1,0.5]];portConstraint=eastwest;" parent="1szJqMXlDg2l1sWaEA4Y-14" vertex="1">
          <mxGeometry y="78" width="220" height="26" as="geometry" />
        </mxCell>
        <mxCell id="1szJqMXlDg2l1sWaEA4Y-19" value="+ date: LocalDate" style="text;html=1;strokeColor=none;fillColor=none;align=left;verticalAlign=top;spacingLeft=4;spacingRight=4;whiteSpace=wrap;overflow=hidden;rotatable=0;points=[[0,0.5],[1,0.5]];portConstraint=eastwest;" parent="1szJqMXlDg2l1sWaEA4Y-14" vertex="1">
          <mxGeometry y="104" width="220" height="26" as="geometry" />
        </mxCell>
        <mxCell id="1szJqMXlDg2l1sWaEA4Y-20" value="+ senderAccount: Account" style="text;html=1;strokeColor=none;fillColor=none;align=left;verticalAlign=top;spacingLeft=4;spacingRight=4;whiteSpace=wrap;overflow=hidden;rotatable=0;points=[[0,0.5],[1,0.5]];portConstraint=eastwest;" parent="1szJqMXlDg2l1sWaEA4Y-14" vertex="1">
          <mxGeometry y="130" width="220" height="26" as="geometry" />
        </mxCell>
        <mxCell id="1szJqMXlDg2l1sWaEA4Y-21" value="+ receiverAccount: Account" style="text;html=1;strokeColor=none;fillColor=none;align=left;verticalAlign=top;spacingLeft=4;spacingRight=4;whiteSpace=wrap;overflow=hidden;rotatable=0;points=[[0,0.5],[1,0.5]];portConstraint=eastwest;" parent="1szJqMXlDg2l1sWaEA4Y-14" vertex="1">
          <mxGeometry y="156" width="220" height="26" as="geometry" />
        </mxCell>
        <mxCell id="1szJqMXlDg2l1sWaEA4Y-22" value="+ rate: ExchangeRate" style="text;html=1;strokeColor=none;fillColor=none;align=left;verticalAlign=top;spacingLeft=4;spacingRight=4;whiteSpace=wrap;overflow=hidden;rotatable=0;points=[[0,0.5],[1,0.5]];portConstraint=eastwest;" parent="1szJqMXlDg2l1sWaEA4Y-14" vertex="1">
          <mxGeometry y="182" width="220" height="26" as="geometry" />
        </mxCell>
        <mxCell id="x9i4-6A59VeeFug72pad-1" value="ExchangeRates" style="swimlane;html=1;fontStyle=0;childLayout=stackLayout;horizontal=1;startSize=26;fillColor=none;horizontalStack=0;resizeParent=1;resizeLast=0;collapsible=1;marginBottom=0;swimlaneFillColor=#ffffff;rounded=0;shadow=0;comic=0;labelBackgroundColor=none;strokeWidth=1;fontFamily=Verdana;fontSize=10;align=center;" parent="1" vertex="1">
          <mxGeometry x="1740" y="236" width="220" height="208" as="geometry" />
        </mxCell>
        <mxCell id="x9i4-6A59VeeFug72pad-2" value="+ id: int" style="text;html=1;strokeColor=none;fillColor=none;align=left;verticalAlign=top;spacingLeft=4;spacingRight=4;whiteSpace=wrap;overflow=hidden;rotatable=0;points=[[0,0.5],[1,0.5]];portConstraint=eastwest;" parent="x9i4-6A59VeeFug72pad-1" vertex="1">
          <mxGeometry y="26" width="220" height="26" as="geometry" />
        </mxCell>
        <mxCell id="x9i4-6A59VeeFug72pad-3" value="+ inputCurrency: String" style="text;html=1;strokeColor=none;fillColor=none;align=left;verticalAlign=top;spacingLeft=4;spacingRight=4;whiteSpace=wrap;overflow=hidden;rotatable=0;points=[[0,0.5],[1,0.5]];portConstraint=eastwest;" parent="x9i4-6A59VeeFug72pad-1" vertex="1">
          <mxGeometry y="52" width="220" height="26" as="geometry" />
        </mxCell>
        <mxCell id="x9i4-6A59VeeFug72pad-9" value="+ outputCurrency: String" style="text;html=1;strokeColor=none;fillColor=none;align=left;verticalAlign=top;spacingLeft=4;spacingRight=4;whiteSpace=wrap;overflow=hidden;rotatable=0;points=[[0,0.5],[1,0.5]];portConstraint=eastwest;" parent="x9i4-6A59VeeFug72pad-1" vertex="1">
          <mxGeometry y="78" width="220" height="26" as="geometry" />
        </mxCell>
        <mxCell id="x9i4-6A59VeeFug72pad-5" value="+ rate: float" style="text;html=1;strokeColor=none;fillColor=none;align=left;verticalAlign=top;spacingLeft=4;spacingRight=4;whiteSpace=wrap;overflow=hidden;rotatable=0;points=[[0,0.5],[1,0.5]];portConstraint=eastwest;" parent="x9i4-6A59VeeFug72pad-1" vertex="1">
          <mxGeometry y="104" width="220" height="26" as="geometry" />
        </mxCell>
        <mxCell id="x9i4-6A59VeeFug72pad-20" value="&lt;p style=&quot;margin:0px;margin-top:4px;text-align:center;&quot;&gt;&lt;i style=&quot;border-color: var(--border-color);&quot;&gt;&amp;lt;&amp;lt;Interface&amp;gt;&amp;gt;&lt;/i&gt;&lt;b&gt;&lt;br&gt;&lt;/b&gt;&lt;/p&gt;&lt;p style=&quot;margin:0px;margin-top:4px;text-align:center;&quot;&gt;&lt;b&gt;UserRepository&lt;/b&gt;&lt;/p&gt;&lt;hr size=&quot;1&quot;&gt;&lt;p style=&quot;margin:0px;margin-left:4px;&quot;&gt;&lt;/p&gt;&lt;p style=&quot;margin:0px;margin-left:4px;&quot;&gt;+ findByUsername(String): Optional&amp;lt;User&amp;gt;&lt;br&gt;+ findAll(): List&amp;lt;User&amp;gt;&lt;/p&gt;" style="verticalAlign=top;align=left;overflow=fill;fontSize=12;fontFamily=Helvetica;html=1;rounded=0;shadow=0;comic=0;labelBackgroundColor=none;strokeWidth=1" parent="1" vertex="1">
          <mxGeometry x="940" y="491.5" width="260" height="140" as="geometry" />
        </mxCell>
        <mxCell id="x9i4-6A59VeeFug72pad-22" value="&lt;p style=&quot;margin:0px;margin-top:4px;text-align:center;&quot;&gt;&lt;i style=&quot;border-color: var(--border-color);&quot;&gt;&amp;lt;&amp;lt;Interface&amp;gt;&amp;gt;&lt;/i&gt;&lt;b&gt;&lt;br&gt;&lt;/b&gt;&lt;/p&gt;&lt;p style=&quot;margin:0px;margin-top:4px;text-align:center;&quot;&gt;&lt;b&gt;AccountRepository&lt;/b&gt;&lt;/p&gt;&lt;hr size=&quot;1&quot;&gt;&lt;p style=&quot;margin:0px;margin-left:4px;&quot;&gt;&lt;span style=&quot;background-color: initial;&quot;&gt;+ findAllByUserId(int): List&amp;lt;Account&amp;gt;&lt;/span&gt;&lt;br&gt;&lt;/p&gt;&lt;p style=&quot;margin:0px;margin-left:4px;&quot;&gt;+ findById(int): Account&lt;span style=&quot;background-color: initial;&quot;&gt;&lt;br&gt;&lt;/span&gt;&lt;/p&gt;&lt;p style=&quot;margin:0px;margin-left:4px;&quot;&gt;&lt;span style=&quot;background-color: initial;&quot;&gt;&lt;br&gt;&lt;/span&gt;&lt;/p&gt;&lt;p style=&quot;margin:0px;margin-left:4px;&quot;&gt;&lt;br&gt;&lt;/p&gt;" style="verticalAlign=top;align=left;overflow=fill;fontSize=12;fontFamily=Helvetica;html=1;rounded=0;shadow=0;comic=0;labelBackgroundColor=none;strokeWidth=1" parent="1" vertex="1">
          <mxGeometry x="1217.5" y="491.5" width="225" height="140" as="geometry" />
        </mxCell>
        <mxCell id="x9i4-6A59VeeFug72pad-23" value="&lt;p style=&quot;margin:0px;margin-top:4px;text-align:center;&quot;&gt;&lt;i style=&quot;border-color: var(--border-color);&quot;&gt;&amp;lt;&amp;lt;Interface&amp;gt;&amp;gt;&lt;/i&gt;&lt;b&gt;&lt;br&gt;&lt;/b&gt;&lt;/p&gt;&lt;p style=&quot;margin:0px;margin-top:4px;text-align:center;&quot;&gt;&lt;b&gt;TransactionRepository&lt;/b&gt;&lt;/p&gt;&lt;hr size=&quot;1&quot;&gt;&lt;p style=&quot;margin:0px;margin-left:4px;&quot;&gt;&lt;/p&gt;&lt;p style=&quot;margin:0px;margin-left:4px;&quot;&gt;+ findAllbySenderId(): List&amp;lt;Transaction&amp;gt;&lt;br&gt;+ findAllbyReceiverId(): List&amp;lt;Transaction&amp;gt;&lt;br style=&quot;border-color: var(--border-color);&quot;&gt;&lt;/p&gt;" style="verticalAlign=top;align=left;overflow=fill;fontSize=12;fontFamily=Helvetica;html=1;rounded=0;shadow=0;comic=0;labelBackgroundColor=none;strokeWidth=1" parent="1" vertex="1">
          <mxGeometry x="1467.5" y="495" width="225" height="140" as="geometry" />
        </mxCell>
        <mxCell id="x9i4-6A59VeeFug72pad-24" value="&lt;p style=&quot;margin:0px;margin-top:4px;text-align:center;&quot;&gt;&lt;i style=&quot;border-color: var(--border-color);&quot;&gt;&amp;lt;&amp;lt;Interface&amp;gt;&amp;gt;&lt;/i&gt;&lt;b&gt;&lt;br&gt;&lt;/b&gt;&lt;/p&gt;&lt;p style=&quot;margin:0px;margin-top:4px;text-align:center;&quot;&gt;&lt;b&gt;ExchangeRateRepository&lt;/b&gt;&lt;/p&gt;&lt;hr size=&quot;1&quot;&gt;&lt;p style=&quot;margin:0px;margin-left:4px;&quot;&gt;&lt;/p&gt;&lt;p style=&quot;margin:0px;margin-left:4px;&quot;&gt;+ findById(int): ExchangeRate&lt;br&gt;&lt;br&gt;&lt;/p&gt;" style="verticalAlign=top;align=left;overflow=fill;fontSize=12;fontFamily=Helvetica;html=1;rounded=0;shadow=0;comic=0;labelBackgroundColor=none;strokeWidth=1" parent="1" vertex="1">
          <mxGeometry x="1755" y="495" width="190" height="140" as="geometry" />
        </mxCell>
        <mxCell id="x9i4-6A59VeeFug72pad-26" value="&lt;p style=&quot;margin:0px;margin-top:4px;text-align:center;&quot;&gt;&lt;b&gt;UserService&lt;/b&gt;&lt;/p&gt;&lt;hr size=&quot;1&quot;&gt;&lt;p style=&quot;margin:0px;margin-left:4px;&quot;&gt;+ userRepository: UserRepository&lt;/p&gt;&lt;br&gt;&lt;hr size=&quot;1&quot;&gt;&lt;p style=&quot;margin:0px;margin-left:4px;&quot;&gt;+ createUser(User user): void&lt;br&gt;+ getEncodedPassword(String): String&lt;/p&gt;" style="verticalAlign=top;align=left;overflow=fill;fontSize=12;fontFamily=Helvetica;html=1;rounded=0;shadow=0;comic=0;labelBackgroundColor=none;strokeWidth=1" parent="1" vertex="1">
          <mxGeometry x="960" y="674" width="220" height="140" as="geometry" />
        </mxCell>
        <mxCell id="x9i4-6A59VeeFug72pad-27" value="&lt;p style=&quot;margin:0px;margin-top:4px;text-align:center;&quot;&gt;&lt;b&gt;AccountService&lt;/b&gt;&lt;/p&gt;&lt;hr size=&quot;1&quot;&gt;&lt;p style=&quot;margin:0px;margin-left:4px;&quot;&gt;+ accountRepository: AccountRepository&lt;/p&gt;&lt;br&gt;&lt;hr size=&quot;1&quot;&gt;&lt;p style=&quot;margin:0px;margin-left:4px;&quot;&gt;+ createAccount(Account account): void&lt;br&gt;+ updateBalance(Account, double): void&lt;/p&gt;&lt;p style=&quot;margin:0px;margin-left:4px;&quot;&gt;+ getBalance(Account account): double&lt;br&gt;&lt;/p&gt;&lt;p style=&quot;border-color: var(--border-color); margin: 0px 0px 0px 4px;&quot;&gt;+ deposit(double Amount): void&lt;br style=&quot;border-color: var(--border-color);&quot;&gt;&lt;/p&gt;&lt;p style=&quot;border-color: var(--border-color); margin: 0px 0px 0px 4px;&quot;&gt;+ withdraw(double Amount): void&lt;br&gt;&lt;/p&gt;&lt;p style=&quot;border-color: var(--border-color); margin: 0px 0px 0px 4px;&quot;&gt;&lt;br style=&quot;border-color: var(--border-color);&quot;&gt;&lt;/p&gt;" style="verticalAlign=top;align=left;overflow=fill;fontSize=12;fontFamily=Helvetica;html=1;rounded=0;shadow=0;comic=0;labelBackgroundColor=none;strokeWidth=1" parent="1" vertex="1">
          <mxGeometry x="1220" y="674" width="220" height="156" as="geometry" />
        </mxCell>
        <mxCell id="x9i4-6A59VeeFug72pad-28" value="Requests" style="swimlane;html=1;fontStyle=0;childLayout=stackLayout;horizontal=1;startSize=26;fillColor=none;horizontalStack=0;resizeParent=1;resizeLast=0;collapsible=1;marginBottom=0;swimlaneFillColor=#ffffff;rounded=0;shadow=0;comic=0;labelBackgroundColor=none;strokeWidth=1;fontFamily=Verdana;fontSize=10;align=center;" parent="1" vertex="1">
          <mxGeometry x="1990" y="235" width="220" height="208" as="geometry" />
        </mxCell>
        <mxCell id="x9i4-6A59VeeFug72pad-29" value="+ id: int" style="text;html=1;strokeColor=none;fillColor=none;align=left;verticalAlign=top;spacingLeft=4;spacingRight=4;whiteSpace=wrap;overflow=hidden;rotatable=0;points=[[0,0.5],[1,0.5]];portConstraint=eastwest;" parent="x9i4-6A59VeeFug72pad-28" vertex="1">
          <mxGeometry y="26" width="220" height="26" as="geometry" />
        </mxCell>
        <mxCell id="x9i4-6A59VeeFug72pad-30" value="+ currency: String" style="text;html=1;strokeColor=none;fillColor=none;align=left;verticalAlign=top;spacingLeft=4;spacingRight=4;whiteSpace=wrap;overflow=hidden;rotatable=0;points=[[0,0.5],[1,0.5]];portConstraint=eastwest;" parent="x9i4-6A59VeeFug72pad-28" vertex="1">
          <mxGeometry y="52" width="220" height="26" as="geometry" />
        </mxCell>
        <mxCell id="x9i4-6A59VeeFug72pad-31" value="+ amount: double" style="text;html=1;strokeColor=none;fillColor=none;align=left;verticalAlign=top;spacingLeft=4;spacingRight=4;whiteSpace=wrap;overflow=hidden;rotatable=0;points=[[0,0.5],[1,0.5]];portConstraint=eastwest;" parent="x9i4-6A59VeeFug72pad-28" vertex="1">
          <mxGeometry y="78" width="220" height="26" as="geometry" />
        </mxCell>
        <mxCell id="x9i4-6A59VeeFug72pad-32" value="+ rate: float" style="text;html=1;strokeColor=none;fillColor=none;align=left;verticalAlign=top;spacingLeft=4;spacingRight=4;whiteSpace=wrap;overflow=hidden;rotatable=0;points=[[0,0.5],[1,0.5]];portConstraint=eastwest;" parent="x9i4-6A59VeeFug72pad-28" vertex="1">
          <mxGeometry y="104" width="220" height="26" as="geometry" />
        </mxCell>
        <mxCell id="x9i4-6A59VeeFug72pad-34" value="+ receiverAccount: Account" style="text;html=1;strokeColor=none;fillColor=none;align=left;verticalAlign=top;spacingLeft=4;spacingRight=4;whiteSpace=wrap;overflow=hidden;rotatable=0;points=[[0,0.5],[1,0.5]];portConstraint=eastwest;" parent="x9i4-6A59VeeFug72pad-28" vertex="1">
          <mxGeometry y="130" width="220" height="26" as="geometry" />
        </mxCell>
        <mxCell id="x9i4-6A59VeeFug72pad-33" value="+ senderAccount: Account" style="text;html=1;strokeColor=none;fillColor=none;align=left;verticalAlign=top;spacingLeft=4;spacingRight=4;whiteSpace=wrap;overflow=hidden;rotatable=0;points=[[0,0.5],[1,0.5]];portConstraint=eastwest;" parent="x9i4-6A59VeeFug72pad-28" vertex="1">
          <mxGeometry y="156" width="220" height="26" as="geometry" />
        </mxCell>
        <mxCell id="x9i4-6A59VeeFug72pad-35" value="+ status: String" style="text;html=1;strokeColor=none;fillColor=none;align=left;verticalAlign=top;spacingLeft=4;spacingRight=4;whiteSpace=wrap;overflow=hidden;rotatable=0;points=[[0,0.5],[1,0.5]];portConstraint=eastwest;" parent="x9i4-6A59VeeFug72pad-28" vertex="1">
          <mxGeometry y="182" width="220" height="26" as="geometry" />
        </mxCell>
        <mxCell id="x9i4-6A59VeeFug72pad-36" value="&lt;p style=&quot;margin:0px;margin-top:4px;text-align:center;&quot;&gt;&lt;i style=&quot;border-color: var(--border-color);&quot;&gt;&amp;lt;&amp;lt;Interface&amp;gt;&amp;gt;&lt;/i&gt;&lt;b&gt;&lt;br&gt;&lt;/b&gt;&lt;/p&gt;&lt;p style=&quot;margin:0px;margin-top:4px;text-align:center;&quot;&gt;&lt;b&gt;RequestRepository&lt;/b&gt;&lt;/p&gt;&lt;hr size=&quot;1&quot;&gt;&lt;p style=&quot;margin:0px;margin-left:4px;&quot;&gt;&lt;/p&gt;&lt;p style=&quot;margin:0px;margin-left:4px;&quot;&gt;+ findById(int): Request&lt;/p&gt;&lt;p style=&quot;margin:0px;margin-left:4px;&quot;&gt;+ findAllById(int): List&amp;lt;Request&amp;gt;&lt;br&gt;&lt;br&gt;&lt;/p&gt;" style="verticalAlign=top;align=left;overflow=fill;fontSize=12;fontFamily=Helvetica;html=1;rounded=0;shadow=0;comic=0;labelBackgroundColor=none;strokeWidth=1" parent="1" vertex="1">
          <mxGeometry x="2005" y="491.5" width="190" height="140" as="geometry" />
        </mxCell>
        <mxCell id="x9i4-6A59VeeFug72pad-37" value="&lt;p style=&quot;margin:0px;margin-top:4px;text-align:center;&quot;&gt;&lt;b&gt;TransactionService&lt;/b&gt;&lt;/p&gt;&lt;hr size=&quot;1&quot;&gt;&lt;p style=&quot;margin:0px;margin-left:4px;&quot;&gt;+ accountRepository: AccountRepository&lt;/p&gt;&amp;nbsp;+ transactionRepository: TransactionRepository&lt;br&gt;&lt;hr size=&quot;1&quot;&gt;&lt;p style=&quot;margin:0px;margin-left:4px;&quot;&gt;+ createTransaction(Transaction): void&lt;br&gt;&lt;/p&gt;&lt;p style=&quot;margin:0px;margin-left:4px;&quot;&gt;+ getDebitTransactions(Account receiverAccount): List&amp;lt;Transaction&amp;gt;&lt;/p&gt;&lt;p style=&quot;border-color: var(--border-color); margin: 0px 0px 0px 4px;&quot;&gt;+ getCreditTransactions(Account senderAccount): List&amp;lt;Transaction&amp;gt;&lt;br style=&quot;border-color: var(--border-color);&quot;&gt;&lt;/p&gt;&lt;p style=&quot;border-color: var(--border-color); margin: 0px 0px 0px 4px;&quot;&gt;+ exchange(Account source, Account target, ExchangeRate):&amp;nbsp;&lt;br&gt;&lt;/p&gt;" style="verticalAlign=top;align=left;overflow=fill;fontSize=12;fontFamily=Helvetica;html=1;rounded=0;shadow=0;comic=0;labelBackgroundColor=none;strokeWidth=1" parent="1" vertex="1">
          <mxGeometry x="1450" y="674" width="370" height="156" as="geometry" />
        </mxCell>
        <mxCell id="x9i4-6A59VeeFug72pad-39" value="&lt;p style=&quot;margin:0px;margin-top:4px;text-align:center;&quot;&gt;&lt;b&gt;RequestService&lt;/b&gt;&lt;/p&gt;&lt;hr size=&quot;1&quot;&gt;&lt;p style=&quot;margin:0px;margin-left:4px;&quot;&gt;+ requestRepository: RequestRepository&lt;/p&gt;&amp;nbsp;&lt;br&gt;&lt;hr size=&quot;1&quot;&gt;&lt;p style=&quot;margin:0px;margin-left:4px;&quot;&gt;+ createRequest(Request): void&lt;br&gt;&lt;/p&gt;&lt;p style=&quot;margin:0px;margin-left:4px;&quot;&gt;+ approveRequest(Request): void&lt;br&gt;&lt;/p&gt;&lt;p style=&quot;border-color: var(--border-color); margin: 0px 0px 0px 4px;&quot;&gt;&lt;br style=&quot;border-color: var(--border-color);&quot;&gt;&lt;/p&gt;" style="verticalAlign=top;align=left;overflow=fill;fontSize=12;fontFamily=Helvetica;html=1;rounded=0;shadow=0;comic=0;labelBackgroundColor=none;strokeWidth=1" parent="1" vertex="1">
          <mxGeometry x="1970" y="674" width="260" height="156" as="geometry" />
        </mxCell>
        <mxCell id="x9i4-6A59VeeFug72pad-40" value="&lt;p style=&quot;margin:0px;margin-top:4px;text-align:center;&quot;&gt;&lt;b&gt;UserController&lt;/b&gt;&lt;/p&gt;&lt;hr size=&quot;1&quot;&gt;&lt;p style=&quot;margin:0px;margin-left:4px;&quot;&gt;+ userService: UserService&lt;/p&gt;&lt;br&gt;&lt;hr size=&quot;1&quot;&gt;&lt;p style=&quot;margin:0px;margin-left:4px;&quot;&gt;+ register (POST): User&lt;br&gt;+ login(POST): U&lt;br&gt;&lt;/p&gt;" style="verticalAlign=top;align=left;overflow=fill;fontSize=12;fontFamily=Helvetica;html=1;rounded=0;shadow=0;comic=0;labelBackgroundColor=none;strokeWidth=1" parent="1" vertex="1">
          <mxGeometry x="960" y="884" width="220" height="140" as="geometry" />
        </mxCell>
        <mxCell id="2buKXt_JLtLqJhaLvTuv-14" style="edgeStyle=orthogonalEdgeStyle;rounded=0;orthogonalLoop=1;jettySize=auto;html=1;" parent="1" source="2buKXt_JLtLqJhaLvTuv-1" target="2buKXt_JLtLqJhaLvTuv-2" edge="1">
          <mxGeometry relative="1" as="geometry" />
        </mxCell>
        <mxCell id="2buKXt_JLtLqJhaLvTuv-1" value="register" style="html=1;whiteSpace=wrap;fillColor=#d5e8d4;strokeColor=#82b366;" parent="1" vertex="1">
          <mxGeometry x="1467.5" y="1090" width="110" height="50" as="geometry" />
        </mxCell>
        <mxCell id="2buKXt_JLtLqJhaLvTuv-13" style="edgeStyle=orthogonalEdgeStyle;rounded=0;orthogonalLoop=1;jettySize=auto;html=1;" parent="1" source="2buKXt_JLtLqJhaLvTuv-2" target="2buKXt_JLtLqJhaLvTuv-12" edge="1">
          <mxGeometry relative="1" as="geometry" />
        </mxCell>
        <mxCell id="2buKXt_JLtLqJhaLvTuv-18" style="edgeStyle=orthogonalEdgeStyle;rounded=0;orthogonalLoop=1;jettySize=auto;html=1;entryX=0;entryY=0.5;entryDx=0;entryDy=0;" parent="1" source="2buKXt_JLtLqJhaLvTuv-2" target="2buKXt_JLtLqJhaLvTuv-16" edge="1">
          <mxGeometry relative="1" as="geometry">
            <Array as="points">
              <mxPoint x="1650" y="1215" />
              <mxPoint x="1650" y="1275" />
            </Array>
          </mxGeometry>
        </mxCell>
        <mxCell id="2buKXt_JLtLqJhaLvTuv-19" style="edgeStyle=orthogonalEdgeStyle;rounded=0;orthogonalLoop=1;jettySize=auto;html=1;exitX=1;exitY=0.5;exitDx=0;exitDy=0;entryX=0;entryY=0.5;entryDx=0;entryDy=0;" parent="1" source="2buKXt_JLtLqJhaLvTuv-2" target="2buKXt_JLtLqJhaLvTuv-17" edge="1">
          <mxGeometry relative="1" as="geometry">
            <Array as="points">
              <mxPoint x="1650" y="1215" />
              <mxPoint x="1650" y="1335" />
            </Array>
          </mxGeometry>
        </mxCell>
        <mxCell id="2buKXt_JLtLqJhaLvTuv-22" style="edgeStyle=orthogonalEdgeStyle;rounded=0;orthogonalLoop=1;jettySize=auto;html=1;entryX=0;entryY=0.5;entryDx=0;entryDy=0;" parent="1" source="2buKXt_JLtLqJhaLvTuv-2" target="2buKXt_JLtLqJhaLvTuv-21" edge="1">
          <mxGeometry relative="1" as="geometry">
            <Array as="points">
              <mxPoint x="1523" y="1535" />
            </Array>
          </mxGeometry>
        </mxCell>
        <mxCell id="2buKXt_JLtLqJhaLvTuv-26" style="edgeStyle=orthogonalEdgeStyle;rounded=0;orthogonalLoop=1;jettySize=auto;html=1;entryX=0;entryY=0.5;entryDx=0;entryDy=0;" parent="1" source="2buKXt_JLtLqJhaLvTuv-2" target="2buKXt_JLtLqJhaLvTuv-25" edge="1">
          <mxGeometry relative="1" as="geometry">
            <Array as="points">
              <mxPoint x="1650" y="1215" />
              <mxPoint x="1650" y="1395" />
            </Array>
          </mxGeometry>
        </mxCell>
        <mxCell id="2buKXt_JLtLqJhaLvTuv-41" style="edgeStyle=orthogonalEdgeStyle;rounded=0;orthogonalLoop=1;jettySize=auto;html=1;entryX=0;entryY=0.5;entryDx=0;entryDy=0;" parent="1" source="2buKXt_JLtLqJhaLvTuv-2" target="2buKXt_JLtLqJhaLvTuv-29" edge="1">
          <mxGeometry relative="1" as="geometry">
            <Array as="points">
              <mxPoint x="1523" y="1605" />
            </Array>
          </mxGeometry>
        </mxCell>
        <mxCell id="2buKXt_JLtLqJhaLvTuv-42" style="edgeStyle=orthogonalEdgeStyle;rounded=0;orthogonalLoop=1;jettySize=auto;html=1;entryX=0;entryY=0.5;entryDx=0;entryDy=0;" parent="1" source="2buKXt_JLtLqJhaLvTuv-2" target="2buKXt_JLtLqJhaLvTuv-30" edge="1">
          <mxGeometry relative="1" as="geometry">
            <Array as="points">
              <mxPoint x="1523" y="1675" />
            </Array>
          </mxGeometry>
        </mxCell>
        <mxCell id="2buKXt_JLtLqJhaLvTuv-43" style="edgeStyle=orthogonalEdgeStyle;rounded=0;orthogonalLoop=1;jettySize=auto;html=1;entryX=0;entryY=0.5;entryDx=0;entryDy=0;" parent="1" source="2buKXt_JLtLqJhaLvTuv-2" target="2buKXt_JLtLqJhaLvTuv-39" edge="1">
          <mxGeometry relative="1" as="geometry">
            <Array as="points">
              <mxPoint x="1523" y="1770" />
              <mxPoint x="2690" y="1770" />
              <mxPoint x="2690" y="1535" />
            </Array>
          </mxGeometry>
        </mxCell>
        <mxCell id="2buKXt_JLtLqJhaLvTuv-52" style="edgeStyle=orthogonalEdgeStyle;rounded=0;orthogonalLoop=1;jettySize=auto;html=1;entryX=0;entryY=0.5;entryDx=0;entryDy=0;" parent="1" source="2buKXt_JLtLqJhaLvTuv-2" target="2buKXt_JLtLqJhaLvTuv-51" edge="1">
          <mxGeometry relative="1" as="geometry">
            <Array as="points">
              <mxPoint x="1650" y="1215" />
              <mxPoint x="1650" y="1455" />
            </Array>
          </mxGeometry>
        </mxCell>
        <mxCell id="2buKXt_JLtLqJhaLvTuv-2" value="login" style="html=1;whiteSpace=wrap;fillColor=#d5e8d4;strokeColor=#82b366;" parent="1" vertex="1">
          <mxGeometry x="1467.5" y="1190" width="110" height="50" as="geometry" />
        </mxCell>
        <mxCell id="2buKXt_JLtLqJhaLvTuv-11" value="/app/auth" style="html=1;whiteSpace=wrap;" parent="1" vertex="1">
          <mxGeometry x="1467.5" y="1020" width="110" height="50" as="geometry" />
        </mxCell>
        <mxCell id="2buKXt_JLtLqJhaLvTuv-12" value="add account" style="html=1;whiteSpace=wrap;fillColor=#d5e8d4;strokeColor=#82b366;" parent="1" vertex="1">
          <mxGeometry x="1780" y="1190" width="110" height="50" as="geometry" />
        </mxCell>
        <mxCell id="2buKXt_JLtLqJhaLvTuv-15" value="/app/accounts" style="html=1;whiteSpace=wrap;" parent="1" vertex="1">
          <mxGeometry x="1710" y="1020" width="110" height="50" as="geometry" />
        </mxCell>
        <mxCell id="2buKXt_JLtLqJhaLvTuv-16" value="deposit" style="html=1;whiteSpace=wrap;" parent="1" vertex="1">
          <mxGeometry x="1780" y="1250" width="110" height="50" as="geometry" />
        </mxCell>
        <mxCell id="2buKXt_JLtLqJhaLvTuv-17" value="withdraw" style="html=1;whiteSpace=wrap;" parent="1" vertex="1">
          <mxGeometry x="1780" y="1310" width="110" height="50" as="geometry" />
        </mxCell>
        <mxCell id="2buKXt_JLtLqJhaLvTuv-20" value="/app/accounts/{accountId}" style="html=1;whiteSpace=wrap;" parent="1" vertex="1">
          <mxGeometry x="1980" y="1020" width="140" height="50" as="geometry" />
        </mxCell>
        <mxCell id="2buKXt_JLtLqJhaLvTuv-24" style="edgeStyle=orthogonalEdgeStyle;rounded=0;orthogonalLoop=1;jettySize=auto;html=1;entryX=0;entryY=0.5;entryDx=0;entryDy=0;" parent="1" source="2buKXt_JLtLqJhaLvTuv-21" target="2buKXt_JLtLqJhaLvTuv-23" edge="1">
          <mxGeometry relative="1" as="geometry" />
        </mxCell>
        <mxCell id="2buKXt_JLtLqJhaLvTuv-21" value="transactionHistory&lt;br&gt;(for specific account)" style="html=1;whiteSpace=wrap;" parent="1" vertex="1">
          <mxGeometry x="2160" y="1510" width="120" height="50" as="geometry" />
        </mxCell>
        <mxCell id="2buKXt_JLtLqJhaLvTuv-23" value="transactionHistory" style="html=1;whiteSpace=wrap;" parent="1" vertex="1">
          <mxGeometry x="2565" y="1510" width="110" height="50" as="geometry" />
        </mxCell>
        <mxCell id="2buKXt_JLtLqJhaLvTuv-53" style="edgeStyle=orthogonalEdgeStyle;rounded=0;orthogonalLoop=1;jettySize=auto;html=1;entryX=0;entryY=0.5;entryDx=0;entryDy=0;" parent="1" source="2buKXt_JLtLqJhaLvTuv-25" target="2buKXt_JLtLqJhaLvTuv-50" edge="1">
          <mxGeometry relative="1" as="geometry" />
        </mxCell>
        <mxCell id="2buKXt_JLtLqJhaLvTuv-25" value="view specific balance" style="html=1;whiteSpace=wrap;" parent="1" vertex="1">
          <mxGeometry x="1780" y="1370" width="110" height="50" as="geometry" />
        </mxCell>
        <mxCell id="2buKXt_JLtLqJhaLvTuv-27" value="/app/transactions" style="html=1;whiteSpace=wrap;" parent="1" vertex="1">
          <mxGeometry x="2150" y="1020" width="140" height="50" as="geometry" />
        </mxCell>
        <mxCell id="2buKXt_JLtLqJhaLvTuv-28" value="/app/transactions/{accountId}" style="html=1;whiteSpace=wrap;" parent="1" vertex="1">
          <mxGeometry x="2540" y="1020" width="160" height="50" as="geometry" />
        </mxCell>
        <mxCell id="2buKXt_JLtLqJhaLvTuv-35" style="edgeStyle=orthogonalEdgeStyle;rounded=0;orthogonalLoop=1;jettySize=auto;html=1;exitX=1;exitY=0.5;exitDx=0;exitDy=0;entryX=0;entryY=0.5;entryDx=0;entryDy=0;" parent="1" source="2buKXt_JLtLqJhaLvTuv-29" target="2buKXt_JLtLqJhaLvTuv-33" edge="1">
          <mxGeometry relative="1" as="geometry" />
        </mxCell>
        <mxCell id="2buKXt_JLtLqJhaLvTuv-29" value="createTransaction&lt;br&gt;(2 accounts for 2 users)" style="html=1;whiteSpace=wrap;" parent="1" vertex="1">
          <mxGeometry x="2150" y="1580" width="140" height="50" as="geometry" />
        </mxCell>
        <mxCell id="2buKXt_JLtLqJhaLvTuv-36" style="edgeStyle=orthogonalEdgeStyle;rounded=0;orthogonalLoop=1;jettySize=auto;html=1;entryX=0;entryY=0.5;entryDx=0;entryDy=0;" parent="1" source="2buKXt_JLtLqJhaLvTuv-30" target="2buKXt_JLtLqJhaLvTuv-34" edge="1">
          <mxGeometry relative="1" as="geometry" />
        </mxCell>
        <mxCell id="2buKXt_JLtLqJhaLvTuv-30" value="exchange&lt;br&gt;(2 accounts of same user)&lt;br&gt;creates acc if not found" style="html=1;whiteSpace=wrap;" parent="1" vertex="1">
          <mxGeometry x="2150" y="1645" width="140" height="60" as="geometry" />
        </mxCell>
        <mxCell id="2buKXt_JLtLqJhaLvTuv-31" value="/app/requests" style="html=1;whiteSpace=wrap;" parent="1" vertex="1">
          <mxGeometry x="2780" y="1020" width="160" height="50" as="geometry" />
        </mxCell>
        <mxCell id="2buKXt_JLtLqJhaLvTuv-32" value="/app/transactions/&lt;br&gt;{senderAccountId}&lt;br&gt;{receiverAccountId}" style="html=1;whiteSpace=wrap;" parent="1" vertex="1">
          <mxGeometry x="2340" y="1020" width="160" height="50" as="geometry" />
        </mxCell>
        <mxCell id="2buKXt_JLtLqJhaLvTuv-33" value="doTransaction" style="html=1;whiteSpace=wrap;" parent="1" vertex="1">
          <mxGeometry x="2340" y="1580" width="140" height="50" as="geometry" />
        </mxCell>
        <mxCell id="2buKXt_JLtLqJhaLvTuv-34" value="exchange" style="html=1;whiteSpace=wrap;" parent="1" vertex="1">
          <mxGeometry x="2340" y="1650" width="140" height="50" as="geometry" />
        </mxCell>
        <mxCell id="2buKXt_JLtLqJhaLvTuv-37" value="" style="rounded=1;whiteSpace=wrap;html=1;fillColor=#fff2cc;strokeColor=#d6b656;glass=0;opacity=50;" parent="1" vertex="1">
          <mxGeometry x="2320" y="940" width="200" height="810" as="geometry" />
        </mxCell>
        <mxCell id="2buKXt_JLtLqJhaLvTuv-38" value="OPTIONAL" style="html=1;whiteSpace=wrap;" parent="1" vertex="1">
          <mxGeometry x="2350" y="1250" width="140" height="50" as="geometry" />
        </mxCell>
        <mxCell id="2buKXt_JLtLqJhaLvTuv-39" value="sendMoney" style="html=1;whiteSpace=wrap;" parent="1" vertex="1">
          <mxGeometry x="2840" y="1510" width="110" height="50" as="geometry" />
        </mxCell>
        <mxCell id="2buKXt_JLtLqJhaLvTuv-40" value="requestMoney" style="html=1;whiteSpace=wrap;" parent="1" vertex="1">
          <mxGeometry x="2840" y="1600" width="110" height="50" as="geometry" />
        </mxCell>
        <mxCell id="2buKXt_JLtLqJhaLvTuv-44" style="edgeStyle=orthogonalEdgeStyle;rounded=0;orthogonalLoop=1;jettySize=auto;html=1;entryX=0;entryY=0.5;entryDx=0;entryDy=0;" parent="1" target="2buKXt_JLtLqJhaLvTuv-40" edge="1">
          <mxGeometry relative="1" as="geometry">
            <mxPoint x="1523" y="1240" as="sourcePoint" />
            <mxPoint x="2805" y="1535" as="targetPoint" />
            <Array as="points">
              <mxPoint x="1523" y="1770" />
              <mxPoint x="2690" y="1770" />
              <mxPoint x="2690" y="1625" />
            </Array>
          </mxGeometry>
        </mxCell>
        <mxCell id="2buKXt_JLtLqJhaLvTuv-45" value="Authenticated" style="text;html=1;strokeColor=#b85450;fillColor=#f8cecc;align=center;verticalAlign=middle;whiteSpace=wrap;rounded=0;" parent="1" vertex="1">
          <mxGeometry x="1590" y="1180" width="90" height="30" as="geometry" />
        </mxCell>
        <mxCell id="2buKXt_JLtLqJhaLvTuv-46" value="Authenticated" style="text;html=1;strokeColor=#b85450;fillColor=#f8cecc;align=center;verticalAlign=middle;whiteSpace=wrap;rounded=0;" parent="1" vertex="1">
          <mxGeometry x="1540" y="1500" width="90" height="30" as="geometry" />
        </mxCell>
        <mxCell id="2buKXt_JLtLqJhaLvTuv-47" value="Authenticated" style="text;html=1;strokeColor=#b85450;fillColor=#f8cecc;align=center;verticalAlign=middle;whiteSpace=wrap;rounded=0;" parent="1" vertex="1">
          <mxGeometry x="1540" y="1570" width="90" height="30" as="geometry" />
        </mxCell>
        <mxCell id="2buKXt_JLtLqJhaLvTuv-48" value="Authenticated" style="text;html=1;strokeColor=#b85450;fillColor=#f8cecc;align=center;verticalAlign=middle;whiteSpace=wrap;rounded=0;" parent="1" vertex="1">
          <mxGeometry x="1540" y="1640" width="90" height="30" as="geometry" />
        </mxCell>
        <mxCell id="2buKXt_JLtLqJhaLvTuv-49" value="Authenticated" style="text;html=1;strokeColor=#b85450;fillColor=#f8cecc;align=center;verticalAlign=middle;whiteSpace=wrap;rounded=0;" parent="1" vertex="1">
          <mxGeometry x="1540" y="1730" width="90" height="30" as="geometry" />
        </mxCell>
        <mxCell id="2buKXt_JLtLqJhaLvTuv-50" value="view balance&lt;br&gt;for specific account" style="html=1;whiteSpace=wrap;" parent="1" vertex="1">
          <mxGeometry x="1995" y="1370" width="110" height="50" as="geometry" />
        </mxCell>
        <mxCell id="2buKXt_JLtLqJhaLvTuv-51" value="view balance 4all" style="html=1;whiteSpace=wrap;" parent="1" vertex="1">
          <mxGeometry x="1780" y="1430" width="110" height="50" as="geometry" />
        </mxCell>
        <mxCell id="2buKXt_JLtLqJhaLvTuv-54" value="validations" style="text;html=1;strokeColor=#9673a6;fillColor=#e1d5e7;align=center;verticalAlign=middle;whiteSpace=wrap;rounded=0;" parent="1" vertex="1">
          <mxGeometry x="1200" y="1140" width="170" height="200" as="geometry" />
        </mxCell>
        <mxCell id="2buKXt_JLtLqJhaLvTuv-55" value="isNumericPositive" style="text;html=1;strokeColor=#9673a6;fillColor=#e1d5e7;align=center;verticalAlign=middle;whiteSpace=wrap;rounded=0;" parent="1" vertex="1">
          <mxGeometry x="1680" y="1240" width="100" height="30" as="geometry" />
        </mxCell>
        <mxCell id="2buKXt_JLtLqJhaLvTuv-56" value="isNumericPositive" style="text;html=1;strokeColor=#9673a6;fillColor=#e1d5e7;align=center;verticalAlign=middle;whiteSpace=wrap;rounded=0;" parent="1" vertex="1">
          <mxGeometry x="1680" y="1300" width="100" height="30" as="geometry" />
        </mxCell>
        <mxCell id="2buKXt_JLtLqJhaLvTuv-57" value="ex AccountNoFound" style="text;html=1;strokeColor=#b85450;fillColor=#f8cecc;align=center;verticalAlign=middle;whiteSpace=wrap;rounded=0;" parent="1" vertex="1">
          <mxGeometry x="1895" y="1360" width="100" height="30" as="geometry" />
        </mxCell>
        <mxCell id="2buKXt_JLtLqJhaLvTuv-58" value="ex NoAccounts" style="text;html=1;strokeColor=#b85450;fillColor=#f8cecc;align=center;verticalAlign=middle;whiteSpace=wrap;rounded=0;" parent="1" vertex="1">
          <mxGeometry x="1680" y="1420" width="100" height="30" as="geometry" />
        </mxCell>
        <mxCell id="2buKXt_JLtLqJhaLvTuv-59" value="ex NoAccounts" style="text;html=1;strokeColor=#b85450;fillColor=#f8cecc;align=center;verticalAlign=middle;whiteSpace=wrap;rounded=0;" parent="1" vertex="1">
          <mxGeometry x="2040" y="1500" width="120" height="30" as="geometry" />
        </mxCell>
        <mxCell id="2buKXt_JLtLqJhaLvTuv-60" value="ex AccountNotFound" style="text;html=1;strokeColor=#b85450;fillColor=#f8cecc;align=center;verticalAlign=middle;whiteSpace=wrap;rounded=0;" parent="1" vertex="1">
          <mxGeometry x="2020" y="1570" width="130" height="30" as="geometry" />
        </mxCell>
        <mxCell id="2buKXt_JLtLqJhaLvTuv-61" value="ex AccountNotFound" style="text;html=1;strokeColor=#b85450;fillColor=#f8cecc;align=center;verticalAlign=middle;whiteSpace=wrap;rounded=0;" parent="1" vertex="1">
          <mxGeometry x="2020" y="1640" width="130" height="30" as="geometry" />
        </mxCell>
        <mxCell id="2buKXt_JLtLqJhaLvTuv-62" value="ex AccountNotFound" style="text;html=1;strokeColor=#b85450;fillColor=#f8cecc;align=center;verticalAlign=middle;whiteSpace=wrap;rounded=0;" parent="1" vertex="1">
          <mxGeometry x="2420" y="1500" width="130" height="30" as="geometry" />
        </mxCell>
        <mxCell id="2buKXt_JLtLqJhaLvTuv-63" value="ex AccountNotFound" style="text;html=1;strokeColor=#b85450;fillColor=#f8cecc;align=center;verticalAlign=middle;whiteSpace=wrap;rounded=0;" parent="1" vertex="1">
          <mxGeometry x="2700" y="1500" width="130" height="30" as="geometry" />
        </mxCell>
        <mxCell id="2buKXt_JLtLqJhaLvTuv-64" value="ex AccountNotFound" style="text;html=1;strokeColor=#b85450;fillColor=#f8cecc;align=center;verticalAlign=middle;whiteSpace=wrap;rounded=0;" parent="1" vertex="1">
          <mxGeometry x="2700" y="1590" width="130" height="30" as="geometry" />
        </mxCell>
        <mxCell id="2buKXt_JLtLqJhaLvTuv-65" value="ex InsufficientFunds" style="text;html=1;strokeColor=#b85450;fillColor=#f8cecc;align=center;verticalAlign=middle;whiteSpace=wrap;rounded=0;" parent="1" vertex="1">
          <mxGeometry x="2040" y="1540" width="120" height="30" as="geometry" />
        </mxCell>
        <mxCell id="2buKXt_JLtLqJhaLvTuv-66" value="ex InsufficientFunds" style="text;html=1;strokeColor=#b85450;fillColor=#f8cecc;align=center;verticalAlign=middle;whiteSpace=wrap;rounded=0;" parent="1" vertex="1">
          <mxGeometry x="2025" y="1610" width="120" height="30" as="geometry" />
        </mxCell>
        <mxCell id="2buKXt_JLtLqJhaLvTuv-67" value="ex InsufficientFunds" style="text;html=1;strokeColor=#b85450;fillColor=#f8cecc;align=center;verticalAlign=middle;whiteSpace=wrap;rounded=0;" parent="1" vertex="1">
          <mxGeometry x="2030" y="1680" width="120" height="30" as="geometry" />
        </mxCell>
        <mxCell id="2buKXt_JLtLqJhaLvTuv-68" value="ex InsufficientFunds" style="text;html=1;strokeColor=#b85450;fillColor=#f8cecc;align=center;verticalAlign=middle;whiteSpace=wrap;rounded=0;" parent="1" vertex="1">
          <mxGeometry x="2710" y="1540" width="120" height="30" as="geometry" />
        </mxCell>
        <mxCell id="2buKXt_JLtLqJhaLvTuv-69" value="ex InsufficientFunds" style="text;html=1;strokeColor=#b85450;fillColor=#f8cecc;align=center;verticalAlign=middle;whiteSpace=wrap;rounded=0;" parent="1" vertex="1">
          <mxGeometry x="2710" y="1630" width="120" height="30" as="geometry" />
        </mxCell>
        <mxCell id="2buKXt_JLtLqJhaLvTuv-70" value="ex InsufficientFunds" style="text;html=1;strokeColor=#b85450;fillColor=#f8cecc;align=center;verticalAlign=middle;whiteSpace=wrap;rounded=0;" parent="1" vertex="1">
          <mxGeometry x="1660" y="1340" width="120" height="30" as="geometry" />
        </mxCell>
        <mxCell id="nzs0myIR0ODqXqdZSmo8-1" value="ex Unauthorized" style="text;html=1;strokeColor=#b85450;fillColor=#f8cecc;align=center;verticalAlign=middle;whiteSpace=wrap;rounded=0;" vertex="1" parent="1">
          <mxGeometry x="1910" y="1500" width="120" height="30" as="geometry" />
        </mxCell>
        <mxCell id="nzs0myIR0ODqXqdZSmo8-2" value="ex Unauthorized" style="text;html=1;strokeColor=#b85450;fillColor=#f8cecc;align=center;verticalAlign=middle;whiteSpace=wrap;rounded=0;" vertex="1" parent="1">
          <mxGeometry x="1890" y="1570" width="120" height="30" as="geometry" />
        </mxCell>
        <mxCell id="nzs0myIR0ODqXqdZSmo8-3" value="ex Unauthorized" style="text;html=1;strokeColor=#b85450;fillColor=#f8cecc;align=center;verticalAlign=middle;whiteSpace=wrap;rounded=0;" vertex="1" parent="1">
          <mxGeometry x="1885" y="1640" width="120" height="30" as="geometry" />
        </mxCell>
      </root>
    </mxGraphModel>
  </diagram>
</mxfile>
